HIERARCHY
ROOT hip
{
  OFFSET 0 0 0
  CHANNELS 6 Xposition Yposition Zposition Zrotation Yrotation Xrotation
  JOINT abdomen
  {
    OFFSET 0 20.6881 -0.73152
    CHANNELS 3 Zrotation Xrotation Yrotation
    JOINT chest
    {
      OFFSET 0 11.7043 -0.48768
      CHANNELS 3 Zrotation Xrotation Yrotation
      JOINT neck
      {
        OFFSET 0 22.1894 -2.19456
        CHANNELS 3 Zrotation Xrotation Yrotation
        JOINT head
        {
          OFFSET -0.24384 7.07133 1.2192
          CHANNELS 3 Zrotation Xrotation Yrotation
          JOINT leftEye
          {
            OFFSET 4.14528 8.04674 8.04672
            CHANNELS 3 Zrotation Xrotation Yrotation
            End Site
            {
              OFFSET 1 0 0
            }
          }
          JOINT rightEye
          {
            OFFSET -3.6576 8.04674 8.04672
            CHANNELS 3 Zrotation Xrotation Yrotation
            End Site
            {
              OFFSET 1 0 0
            }
          }
        }
      }
      JOINT rCollar
      {
        OFFSET -2.68224 19.2634 -4.8768
        CHANNELS 3 Zrotation Xrotation Yrotation
        JOINT rShldr
        {
          OFFSET -8.77824 -1.95073 1.46304
          CHANNELS 3 Zrotation Xrotation Yrotation
          JOINT rForeArm
          {
            OFFSET -28.1742 -1.7115 0.48768
            CHANNELS 3 Zrotation Xrotation Yrotation
            JOINT rHand
            {
              OFFSET -22.5879 0.773209 7.07136
              CHANNELS 3 Zrotation Xrotation Yrotation
              JOINT rThumb1
              {
                OFFSET -1.2192 -0.487915 3.41376
                CHANNELS 3 Zrotation Xrotation Yrotation
                JOINT rThumb2
                {
                  OFFSET -3.37035 -0.52449 3.41376
                  CHANNELS 3 Zrotation Xrotation Yrotation
                  End Site
                  {
                    OFFSET -1.78271 -1.18214 1.43049
                  }
                }
              }
              JOINT rIndex1
              {
                OFFSET -7.75947 0.938293 5.60832
                CHANNELS 3 Zrotation Xrotation Yrotation
                JOINT rIndex2
                {
                  OFFSET -2.54057 -0.884171 1.56538
                  CHANNELS 3 Zrotation Xrotation Yrotation
                  End Site
                  {
                    OFFSET -1.62519 -0.234802 1.16502
                  }
                }
              }
              JOINT rMid1
              {
                OFFSET -8.24714 1.18213 3.41376
                CHANNELS 3 Zrotation Xrotation Yrotation
                JOINT rMid2
                {
                  OFFSET -3.10165 -0.590103 1.0647
                  CHANNELS 3 Zrotation Xrotation Yrotation
                  End Site
                  {
                    OFFSET -2.48547 -0.328903 0.83742
                  }
                }
              }
              JOINT rRing1
              {
                OFFSET -8.82822 0.546677 1.51678
                CHANNELS 3 Zrotation Xrotation Yrotation
                JOINT rRing2
                {
                  OFFSET -2.60934 -0.819778 -0.0198488
                  CHANNELS 3 Zrotation Xrotation Yrotation
                  End Site
                  {
                    OFFSET -2.33842 -0.294052 0.168128
                  }
                }
              }
              JOINT rPinky1
              {
                OFFSET -8.27202 -0.0477905 -0.4584
                CHANNELS 3 Zrotation Xrotation Yrotation
                JOINT rPinky2
                {
                  OFFSET -1.82734 -0.647385 -0.700984
                  CHANNELS 3 Zrotation Xrotation Yrotation
                  End Site
                  {
                    OFFSET -1.69225 -0.51767 -0.607171
                  }
                }
              }
            }
          }
        }
      }
      JOINT lCollar
      {
        OFFSET 2.68224 19.2634 -4.8768
        CHANNELS 3 Zrotation Xrotation Yrotation
        JOINT lShldr
        {
          OFFSET 8.77824 -1.95073 1.46304
          CHANNELS 3 Zrotation Xrotation Yrotation
          JOINT lForeArm
          {
            OFFSET 28.1742 -1.7115 0.48768
            CHANNELS 3 Zrotation Xrotation Yrotation
            JOINT lHand
            {
              OFFSET 22.5879 0.773209 7.07136
              CHANNELS 3 Zrotation Xrotation Yrotation
              JOINT lThumb1
              {
                OFFSET 1.2192 -0.487915 3.41376
                CHANNELS 3 Zrotation Xrotation Yrotation
                JOINT lThumb2
                {
                  OFFSET 3.37035 -0.52449 3.41376
                  CHANNELS 3 Zrotation Xrotation Yrotation
                  End Site
                  {
                    OFFSET 1.78271 -1.18214 1.43049
                  }
                }
              }
              JOINT lIndex1
              {
                OFFSET 7.75947 0.938293 5.60832
                CHANNELS 3 Zrotation Xrotation Yrotation
                JOINT lIndex2
                {
                  OFFSET 2.54057 -0.884171 1.56538
                  CHANNELS 3 Zrotation Xrotation Yrotation
                  End Site
                  {
                    OFFSET 1.62519 -0.234802 1.16502
                  }
                }
              }
              JOINT lMid1
              {
                OFFSET 8.24714 1.18213 3.41376
                CHANNELS 3 Zrotation Xrotation Yrotation
                JOINT lMid2
                {
                  OFFSET 3.10165 -0.590103 1.0647
                  CHANNELS 3 Zrotation Xrotation Yrotation
                  End Site
                  {
                    OFFSET 2.48547 -0.328903 0.83742
                  }
                }
              }
              JOINT lRing1
              {
                OFFSET 8.82822 0.546677 1.51678
                CHANNELS 3 Zrotation Xrotation Yrotation
                JOINT lRing2
                {
                  OFFSET 2.60934 -0.819778 -0.0198488
                  CHANNELS 3 Zrotation Xrotation Yrotation
                  End Site
                  {
                    OFFSET 2.33842 -0.294052 0.168128
                  }
                }
              }
              JOINT lPinky1
              {
                OFFSET 8.27202 -0.0477905 -0.4584
                CHANNELS 3 Zrotation Xrotation Yrotation
                JOINT lPinky2
                {
                  OFFSET 1.82734 -0.647385 -0.700984
                  CHANNELS 3 Zrotation Xrotation Yrotation
                  End Site
                  {
                    OFFSET 1.69225 -0.51767 -0.607171
                  }
                }
              }
            }
          }
        }
      }
    }
  }
  JOINT rButtock
  {
    OFFSET -8.77824 4.35084 1.2192
    CHANNELS 3 Zrotation Xrotation Yrotation
    JOINT rThigh
    {
      OFFSET 0 -1.70687 -2.19456
      CHANNELS 3 Zrotation Xrotation Yrotation
      JOINT rShin
      {
        OFFSET 0 -36.8199 0.73152
        CHANNELS 3 Zrotation Xrotation Yrotation
        JOINT rFoot
        {
          OFFSET 0.73152 -45.1104 -5.12064
          CHANNELS 3 Zrotation Xrotation Yrotation
          End Site
          {
            OFFSET -1.1221 -3.69964 12.103
          }
        }
      }
    }
  }
  JOINT lButtock
  {
    OFFSET 8.77824 4.35084 1.2192
    CHANNELS 3 Zrotation Xrotation Yrotation
    JOINT lThigh
    {
      OFFSET 0 -1.70687 -2.19456
      CHANNELS 3 Zrotation Xrotation Yrotation
      JOINT lShin
      {
        OFFSET 0 -36.8199 0.73152
        CHANNELS 3 Zrotation Xrotation Yrotation
        JOINT lFoot
        {
          OFFSET -0.73152 -45.1104 -5.12064
          CHANNELS 3 Zrotation Xrotation Yrotation
          End Site
          {
            OFFSET 1.1221 -3.69964 12.103
          }
        }
      }
    }
  }
}
MOTION
Frames:	4
Frame Time:	0.00833333
-159.7 85.1731 16.1848 0.0 0.0 0.0 0.512932 -0.00341814 0.0146932 0.141687 -0.00540198 0.0245504 -3.64182e-15 -1.59028e-15 4.34841e-17 -1.10046e-14 3.18055e-15 1.0871e-16 -0.0 0.0 0.0 -0.0 0.0 0.0 -1.84018e-15 -5.43552e-18 1.98785e-16 -3.66117e-14 -2.54693e-16 7.95139e-16 -6.61555e-13 1.89243e-13 -3.18055e-15 -7.5593e-12 -2.36082e-13 5.08889e-14 -1.78373e-11 -1.02551e-13 1.33583e-13 -3.08104e-11 -1.74931e-13 2.3059e-13 -1.78302e-11 -1.01778e-13 1.24042e-13 7.73091 5.47488 0.417314 -1.78368e-11 -1.02175e-13 1.33583e-13 2.90554 0.965183 0.102902 -1.78361e-11 -1.02473e-13 1.37559e-13 10.2786 0.731801 0.0259123 -1.78365e-11 -1.0138e-13 1.49486e-13 2.22167 -0.733487 -0.20892 -1.93685e-15 -6.60027e-18 -1.98785e-16 -3.97409e-14 -4.96962e-17 -3.97569e-16 -6.57629e-13 -2.05146e-13 2.22639e-14 -7.55813e-12 1.59997e-13 5.725e-14 -1.78239e-11 -1.00499e-13 1.49486e-13 -3.0779e-11 -1.7175e-13 2.51264e-13 -1.7829e-11 -9.93923e-14 1.52667e-13 -7.73091 5.47488 -0.417314 -1.78243e-11 -9.97899e-14 1.43125e-13 -2.90554 0.965183 -0.102902 -1.78328e-11 -1.00287e-13 1.39944e-13 -10.2786 0.731801 -0.0259123 -1.78258e-11 -1.00983e-13 1.27222e-13 -2.22167 -0.733487 0.20892 -2.03217e-16 0.0 -3.88251e-19 0.859999 -4.41146 -0.0729702 -0.00213118 2.43942 -0.0112527 -0.474433 1.97258 0.0938365 2.03217e-16 0.0 3.88251e-19 -0.077701 -2.42095 0.0232545 0.00766788 -1.16604 0.0660003 0.465789 3.58744 -0.125218
-160.071 84.2006 1.5381 -178.524 4.2857 175.904 0.192438 3.80789 0.865392 -0.0430202 0.714999 0.386104 1.6737 2.66335 1.05089 -2.25906 -8.1251 1.3609 -0.0 0.0 0.0 -0.0 0.0 0.0 1.80273e-15 3.89583e-14 1.26923e-14 21.5165 10.0056 2.27636 -5.10848 -2.53039 7.73909 0.0522731 -5.07579 -0.703287 -1.17668e-10 5.05554e-10 -3.03438e-10 -2.01363e-10 8.72315e-10 -5.25682e-10 -1.17662e-10 5.05555e-10 -3.03449e-10 7.73091 5.47488 0.417314 -1.17669e-10 5.05555e-10 -3.03441e-10 2.90554 0.965183 0.102902 -1.17665e-10 5.05554e-10 -3.03438e-10 10.2786 0.731801 0.0259123 -1.17668e-10 5.05555e-10 -3.03431e-10 2.22167 -0.733487 -0.20892 1.6804e-15 3.89561e-14 1.23491e-14 -21.1009 8.14209 -1.54455 4.53058 -2.12422 -7.00392 1.8141e-05 0.128323 -0.0180345 -2.71757e-10 2.40607e-10 4.8134e-10 -4.68333e-10 4.16992e-10 8.32926e-10 -2.7176e-10 2.40609e-10 4.81344e-10 -7.73091 5.47488 -0.417314 -2.71756e-10 2.40608e-10 4.81334e-10 -2.90554 0.965183 -0.102902 -2.71764e-10 2.40609e-10 4.81332e-10 -10.2786 0.731801 -0.0259123 -2.71756e-10 2.40609e-10 4.8132e-10 -2.22167 -0.733487 0.20892 -2.03217e-16 0.0 -3.88251e-19 1.6378 -6.18375 2.57278 0.0411099 10.4709 0.178134 -1.63546 -5.30724 -6.75737 2.03217e-16 0.0 3.88251e-19 -0.212913 -4.40102 -3.27115 -0.0332664 7.62327 -0.118025 1.2872 -2.51016 6.10223
-160.078 84.211 1.5169 -178.551 4.2472 175.789 -0.281719 7.81723 1.78054 -0.240608 1.48215 0.768505 3.34362 5.47196 2.17066 -4.21295 -16.6732 2.89494 -0.0 0.0 0.0 -0.0 0.0 0.0 5.334e-15 8.2693e-14 2.41554e-14 43.3497 20.5159 4.92393 -9.75977 -5.04087 15.9496 -0.0299791 -10.4302 -1.46411 -2.19534e-10 1.0682e-09 -6.45009e-10 -3.75222e-10 1.84316e-09 -1.11726e-09 -2.19529e-10 1.0682e-09 -6.45021e-10 7.73091 5.47488 0.417314 -2.19536e-10 1.0682e-09 -6.45015e-10 2.90554 0.965183 0.102902 -2.19529e-10 1.0682e-09 -6.45013e-10 10.2786 0.731801 0.0259123 -2.19536e-10 1.0682e-09 -6.45011e-10 2.22167 -0.733487 -0.20892 5.18021e-15 8.26897e-14 2.38697e-14 -42.9205 16.719 -3.2818 8.74979 -4.25639 -14.4236 0.000162569 0.28235 -0.0396817 -5.41539e-10 5.33358e-10 1.01921e-09 -9.3311e-10 9.24284e-10 1.76364e-09 -5.41542e-10 5.33362e-10 1.01922e-09 -7.73091 5.47488 -0.417314 -5.41537e-10 5.3336e-10 1.0192e-09 -2.90554 0.965183 -0.102902 -5.41545e-10 5.33362e-10 1.0192e-09 -10.2786 0.731801 -0.0259123 -5.41535e-10 5.33363e-10 1.01919e-09 -2.22167 -0.733487 0.20892 -2.03217e-16 0.0 -3.88251e-19 2.63928 -8.02839 5.4032 0.026102 18.9583 0.393722 -4.78225 -12.6961 -14.3032 2.03217e-16 0.0 3.88251e-19 -0.610797 -6.45514 -6.78704 -0.0130197 16.9085 -0.32453 3.60226 -8.77186 12.8335
-160.09 84.2162 1.51684 -178.605 4.2517 175.787 -0.793813 11.4202 2.61282 -0.439724 2.15545 1.10991 4.72574 7.97925 3.18008 -5.52459 -24.3175 4.43596 -0.0 0.0 0.0 -0.0 0.0 0.0 9.08855e-15 1.16886e-13 3.76794e-14 61.8625 29.8125 7.75684 -13.3242 -7.03839 23.381 -0.228469 -15.218 -2.178 -3.17329e-10 1.51687e-09 -9.10582e-10 -5.42468e-10 2.6173e-09 -1.57751e-09 -3.17325e-10 1.51687e-09 -9.10594e-10 7.73091 5.47488 0.417314 -3.17333e-10 1.51687e-09 -9.1059e-10 2.90554 0.965183 0.102902 -3.17322e-10 1.51687e-09 -9.10589e-10 10.2786 0.731801 0.0259123 -3.17332e-10 1.51687e-09 -9.10591e-10 2.22167 -0.733487 -0.20892 8.91489e-15 1.16881e-13 3.74449e-14 -61.878 24.3517 -5.036 12.0654 -5.99258 -21.1181 0.000296775 0.38497 -0.0541045 -7.79622e-10 7.22022e-10 1.44372e-09 -1.34344e-09 1.25132e-09 2.49828e-09 -7.79623e-10 7.22027e-10 1.44373e-09 -7.73091 5.47488 -0.417314 -7.79619e-10 7.22025e-10 1.44371e-09 -2.90554 0.965183 -0.102902 -7.79625e-10 7.22028e-10 1.44372e-09 -10.2786 0.731801 -0.0259123 -7.79615e-10 7.22029e-10 1.44371e-09 -2.22167 -0.733487 0.20892 -2.03217e-16 0.0 -3.88251e-19 3.68892 -9.65539 7.93198 -0.0479469 26.5328 0.612499 -9.29272 -18.68 -21.5602 2.03217e-16 0.0 3.88251e-19 -1.16876 -8.25867 -9.935 0.0678399 25.201 -0.533718 6.92531 -13.9669 19.1254
